# 3ds Max Wavefront OBJ Exporter v0.97b - (c)2007 guruware
# File Created: 07.06.2018 17:05:31

mtllib finalmesh.mtl

#
# object Plane001
#

v  -74.740021 0.000000 -2.311665
v  -74.740021 0.000000 74.041519
v  -2.532719 0.000000 -2.311665
v  -2.532719 0.000000 74.041519
v  69.674591 0.000000 -2.311665
v  69.674591 0.000000 74.041519
v  -74.740021 0.000000 -78.664841
v  -2.532719 0.000000 -78.664841
v  69.674591 0.000000 -78.664841
# 9 vertices

vn 0.000000 1.000000 -0.000000
# 1 vertex normals

vt 0.000000 0.500000 0.000000
vt 0.000000 0.000000 0.000000
vt 0.500000 0.500000 0.000000
vt 0.500000 0.000000 0.000000
vt 1.000000 0.500000 0.000000
vt 1.000000 0.000000 0.000000
vt 0.000000 1.000000 0.000000
vt 0.500000 1.000000 0.000000
vt 1.000000 1.000000 0.000000
# 9 texture coords

g Plane001
usemtl wire_228184153
s 1
f 1/1/1 2/2/1 3/3/1 
f 4/4/1 3/3/1 2/2/1 
f 3/3/1 4/4/1 5/5/1 
f 6/6/1 5/5/1 4/4/1 
f 7/7/1 1/1/1 8/8/1 
f 3/3/1 8/8/1 1/1/1 
f 8/8/1 3/3/1 9/9/1 
f 5/5/1 9/9/1 3/3/1 
# 8 faces

#
# object Box001
#

v  -27.606583 0.000000 20.826019
v  -27.606583 0.000000 -21.333298
v  10.666653 0.000000 -21.333298
v  10.666653 0.000000 20.826019
v  -27.606583 38.014004 20.826019
v  10.666653 38.014004 20.826019
v  10.666653 38.014004 -21.333298
v  -27.606583 38.014004 -21.333298
# 8 vertices

vn 0.000000 -1.000000 -0.000000
vn 0.000000 1.000000 -0.000000
vn 0.000000 0.000000 1.000000
vn 1.000000 0.000000 -0.000000
vn 0.000000 0.000000 -1.000000
vn -1.000000 0.000000 -0.000000
# 6 vertex normals

vt 1.000000 0.000000 0.000000
vt 1.000000 1.000000 0.000000
vt 0.000000 1.000000 0.000000
vt 0.000000 0.000000 0.000000
# 4 texture coords

g Box001
usemtl Material__26
s 2
f 10/10/2 11/11/2 12/12/2 
f 12/12/2 13/13/2 10/10/2 
usemtl Material__24
s 4
f 14/13/3 15/10/3 16/11/3 
usemtl Material__36
f 16/11/3 17/12/3 14/13/3 
usemtl Material__29
s 8
f 10/13/4 13/10/4 15/11/4 
f 15/11/4 14/12/4 10/13/4 
usemtl Material__28
s 16
f 13/13/5 12/10/5 16/11/5 
f 16/11/5 15/12/5 13/13/5 
usemtl Material__30
s 32
f 12/13/6 11/10/6 17/11/6 
f 17/11/6 16/12/6 12/13/6 
usemtl Material__27
s 64
f 11/13/7 10/10/7 14/11/7 
f 14/11/7 17/12/7 11/13/7 
# 12 faces

