ply
format ascii 1.0
element vertex 6
property float32 x
property float32 y
property float32 z
property float32 nx
property float32 ny
property float32 nz
property float32 u
property float32 v
element face 2
property list uint8 int32 vertex_indices
end_header
10.6666527 -20.8260193 0.0000000 1.0000000 0.0000000 0.0000000 1 1
10.6666527 21.3332977 0.0000000 1.0000000 0.0000000 -0.0000000 0 1
10.6666527 21.3332977 38.0140038 1.0000000 0.0000000 0.0000000 1 0
10.6666527 21.3332977 38.0140038 1.0000000 0.0000000 0.0000000 1 0
10.6666527 -20.8260193 38.0140038 1.0000000 -0.0000000 0.0000000 1 0
10.6666527 -20.8260193 0.0000000 1.0000000 0.0000000 0.0000000 1 1
3 0 1 2
3 3 4 5
