ply
format ascii 1.0
element vertex 36
property float32 x
property float32 y
property float32 z
property float32 nx
property float32 ny
property float32 nz
element face 12
property list uint8 int32 vertex_indices
end_header
-27.6065826 -20.8260193 0.0000000 0.0000000 0.0000000 -1.0000000
-27.6065826 21.3332977 0.0000000 0.0000000 0.0000000 -1.0000000
10.6666527 21.3332977 0.0000000 0.0000000 0.0000000 -1.0000000
10.6666527 21.3332977 0.0000000 0.0000000 0.0000000 -1.0000000
10.6666527 -20.8260193 0.0000000 0.0000000 0.0000000 -1.0000000
-27.6065826 -20.8260193 0.0000000 0.0000000 0.0000000 -1.0000000
-27.6065826 -20.8260193 38.0140038 0.0000000 0.0000000 1.0000000
10.6666527 -20.8260193 38.0140038 0.0000000 -0.0000000 1.0000000
10.6666527 21.3332977 38.0140038 0.0000000 0.0000000 1.0000000
10.6666527 21.3332977 38.0140038 0.0000000 0.0000000 1.0000000
-27.6065826 21.3332977 38.0140038 -0.0000000 0.0000000 1.0000000
-27.6065826 -20.8260193 38.0140038 0.0000000 0.0000000 1.0000000
-27.6065826 -20.8260193 0.0000000 0.0000000 -1.0000000 0.0000000
10.6666527 -20.8260193 0.0000000 0.0000000 -1.0000000 0.0000000
10.6666527 -20.8260193 38.0140038 0.0000000 -1.0000000 0.0000000
10.6666527 -20.8260193 38.0140038 0.0000000 -1.0000000 0.0000000
-27.6065826 -20.8260193 38.0140038 0.0000000 -1.0000000 0.0000000
-27.6065826 -20.8260193 0.0000000 0.0000000 -1.0000000 0.0000000
10.6666527 -20.8260193 0.0000000 1.0000000 0.0000000 0.0000000
10.6666527 21.3332977 0.0000000 1.0000000 0.0000000 -0.0000000
10.6666527 21.3332977 38.0140038 1.0000000 0.0000000 0.0000000
10.6666527 21.3332977 38.0140038 1.0000000 0.0000000 0.0000000
10.6666527 -20.8260193 38.0140038 1.0000000 -0.0000000 0.0000000
10.6666527 -20.8260193 0.0000000 1.0000000 0.0000000 0.0000000
10.6666527 21.3332977 0.0000000 0.0000000 1.0000000 0.0000000
-27.6065826 21.3332977 0.0000000 0.0000000 1.0000000 0.0000000
-27.6065826 21.3332977 38.0140038 0.0000000 1.0000000 0.0000000
-27.6065826 21.3332977 38.0140038 0.0000000 1.0000000 0.0000000
10.6666527 21.3332977 38.0140038 0.0000000 1.0000000 0.0000000
10.6666527 21.3332977 0.0000000 0.0000000 1.0000000 0.0000000
-27.6065826 21.3332977 0.0000000 -1.0000000 0.0000000 0.0000000
-27.6065826 -20.8260193 0.0000000 -1.0000000 0.0000000 0.0000000
-27.6065826 -20.8260193 38.0140038 -1.0000000 0.0000000 0.0000000
-27.6065826 -20.8260193 38.0140038 -1.0000000 0.0000000 0.0000000
-27.6065826 21.3332977 38.0140038 -1.0000000 -0.0000000 -0.0000000
-27.6065826 21.3332977 0.0000000 -1.0000000 0.0000000 0.0000000
3 0 1 2
3 3 4 5
3 6 7 8
3 9 10 11
3 12 13 14
3 15 16 17
3 18 19 20
3 21 22 23
3 24 25 26
3 27 28 29
3 30 31 32
3 33 34 35
