ply
format ascii 1.0
element vertex 8
property float32 x
property float32 y
property float32 z
element face 12
property list uint8 int32 vertex_indices
property float32 nx
property float32 ny
property float32 nz
end_header
-27.6065826 -20.8260193 0.0000000
10.6666527 -20.8260193 0.0000000
-27.6065826 21.3332977 0.0000000
10.6666527 21.3332977 0.0000000
-27.6065826 -20.8260193 38.0140038
10.6666527 -20.8260193 38.0140038
-27.6065826 21.3332977 38.0140038
10.6666527 21.3332977 38.0140038
3 0 2 3 0.0000000 0.0000000 -0.9999999
3 3 1 0 0.0000000 0.0000000 -0.9999999
3 4 5 7 0.0000000 -0.0000000 0.9999999
3 7 6 4 -0.0000000 0.0000000 0.9999999
3 0 1 5 0.0000000 -1.0000000 0.0000000
3 5 4 0 0.0000000 -1.0000000 0.0000000
3 1 3 7 1.0000000 0.0000000 -0.0000000
3 7 5 1 1.0000000 -0.0000000 0.0000000
3 3 2 6 0.0000000 1.0000000 0.0000000
3 6 7 3 0.0000000 1.0000000 0.0000000
3 2 0 4 -1.0000000 0.0000000 0.0000000
3 4 6 2 -1.0000000 -0.0000000 -0.0000000
