ply
format ascii 1.0
element vertex 12
property float32 x
property float32 y
property float32 z
property float32 nx
property float32 ny
property float32 nz
property float32 u
property float32 v
element face 4
property list uint8 int32 vertex_indices
end_header
-0.2436355 40.8838730 14.0864906 -0.2194884 0.1594676 0.9624941 0.599999964237213 0.852416396141052
-1.7101136 41.9493294 13.2874584 -0.4247622 0.3086077 0.8510807 0.564413845539093 0.765362977981567
-1.8672680 39.7306252 13.6017685 -0.4496714 -0.0000000 0.8931941 0.899999976158142 0.823791861534119
-1.7101136 41.9493294 13.2874584 -0.4247622 0.3086077 0.8510807 0.564413845539093 0.765362977981567
-2.9441271 42.8458939 12.0234985 -0.5982116 0.4346260 0.6732333 0.635586142539978 0.765362977981567
-3.3622813 40.8007431 12.4958572 -0.6589354 0.1474307 0.7376099 0.899999976158142 0.735687732696533
-1.7101136 41.9493294 13.2874584 -0.4247622 0.3086077 0.8510807 0.564413845539093 0.765362977981567
-3.3622813 40.8007431 12.4958572 -0.6589354 0.1474307 0.7376099 0.899999976158142 0.735687732696533
-1.8672680 39.7306252 13.6017685 -0.4496714 -0.0000000 0.8931941 0.899999976158142 0.823791861534119
-1.8672680 39.7306252 13.6017685 -0.4496714 -0.0000000 0.8931941 0.899999976158142 0.823791861534119
-3.3622813 40.8007431 12.4958572 -0.6589354 0.1474307 0.7376099 0.899999976158142 0.735687732696533
-3.3622813 38.6605072 12.4958572 -0.6589353 -0.1474308 0.7376099 0.96441388130188 0.765362977981567
3 0 1 2
3 3 4 5
3 6 7 8
3 9 10 11
