ply
format ascii 1.0
element vertex 162
property float32 x
property float32 y
property float32 z
element face 320
property list uint8 int32 vertex_indices
property float32 nx
property float32 ny
property float32 nz
end_header
1.3436738 39.7306252 14.3597689
7.7655573 39.7306252 10.3908262
3.3281450 45.8381996 10.3908262
-3.8517399 43.5053139 10.3908262
-3.8517389 35.9559364 10.3908262
3.3281460 33.6230507 10.3908262
6.5390868 43.5053139 3.9689426
-0.6407976 45.8381996 3.9689426
-5.0782099 39.7306252 3.9689426
-0.6407951 33.6230507 3.9689426
6.5390863 35.9559364 3.9689426
1.3436738 39.7306252 0.0000000
3.3056960 39.7306252 14.0864906
5.1183624 39.7306252 13.2874584
6.6436868 39.7306252 12.0234985
1.9499719 41.5966187 14.0864906
2.5101166 43.3205681 13.2874584
2.9814677 44.7712364 12.0234985
-0.2436355 40.8838730 14.0864906
-1.7101136 41.9493294 13.2874584
-2.9441271 42.8458939 12.0234985
-0.2436352 38.5773773 14.0864906
-1.7101129 37.5119171 13.2874584
-2.9441266 36.6153564 12.0234985
1.9499723 37.8646317 14.0864906
2.5101171 36.1406822 13.2874584
2.9814687 34.6900139 12.0234985
7.2499847 41.5966187 10.8109016
6.2848048 43.3205681 10.9545727
4.9434900 44.7712364 10.8109016
1.3941585 45.9244843 10.8109016
-0.5436708 45.5392723 10.9545727
-2.3378291 44.7118874 10.8109016
-4.5314360 41.6926460 10.8109016
-4.7639003 39.7306252 10.9545727
-4.5314355 37.7686043 10.8109016
-2.3378282 34.7493629 10.8109016
-0.5436697 33.9219780 10.9545727
1.3941597 33.5367661 10.8109016
4.9434905 34.6900139 10.8109016
6.2848053 36.1406822 10.9545727
7.2499852 37.8646317 10.8109016
8.2309961 40.8838730 8.8488798
8.1721497 41.9493332 7.1798844
7.5934963 42.8458939 5.5108891
2.3751698 46.6372299 8.8488798
1.3436736 46.9105072 7.1798844
0.3121777 46.6372299 5.5108891
-4.9061494 42.8458939 8.8488798
-5.4848022 41.9493294 7.1798844
-5.5436482 40.8838730 5.5108891
-3.5504236 34.7493591 8.8488798
-2.8765545 33.9219742 7.1798844
-1.8814274 33.5367661 5.5108891
4.5687780 33.5367661 8.8488798
5.5639043 33.9219780 7.1798844
6.2377729 34.7493629 5.5108891
8.2309961 38.5773773 8.8488798
8.1721487 37.5119171 7.1798844
7.5934963 36.6153564 5.5108891
4.5687771 45.9244843 8.8488798
5.5639038 45.5392723 7.1798844
6.2377720 44.7118874 5.5108891
-3.5504255 44.7118874 8.8488798
-2.8765569 45.5392723 7.1798844
-1.8814298 45.9244843 5.5108891
-4.9061489 36.6153564 8.8488798
-5.4848013 37.5119171 7.1798844
-5.5436482 38.5773773 5.5108891
2.3751712 32.8240204 8.8488798
1.3436756 32.5507431 7.1798844
0.3121799 32.8240204 5.5108891
5.0251760 44.7118874 3.5488667
3.2310178 45.5392723 3.4051960
1.2931888 45.9244843 3.5488667
-2.2561421 44.7712364 3.5488667
-3.5974579 43.3205681 3.4051960
-4.5626373 41.5966187 3.5488667
-4.5626369 37.8646317 3.5488665
-3.5974574 36.1406822 3.4051955
-2.2561407 34.6900139 3.5488665
1.2931905 33.5367661 3.5488672
3.2310188 33.9219780 3.4051967
5.0251765 34.7493629 3.5488672
7.2187829 37.7686043 3.5488667
7.4512477 39.7306252 3.4051960
7.2187829 41.6926460 3.5488667
2.9309831 40.8838730 0.2732787
4.3974609 41.9493332 1.0723104
5.6314740 42.8458939 2.3362708
0.7373756 41.5966187 0.2732787
0.1772307 43.3205681 1.0723104
-0.2941204 44.7712364 2.3362708
-0.6183482 39.7306252 0.2732787
-2.4310145 39.7306252 1.0723104
-3.9563394 39.7306252 2.3362708
0.7373764 37.8646317 0.2732787
0.1772323 36.1406822 1.0723104
-0.2941184 34.6900139 2.3362708
2.9309828 38.5773773 0.2732787
4.3974605 37.5119171 1.0723104
5.6314740 36.6153564 2.3362708
3.9413805 41.6179695 13.6017685
5.7798719 41.6309738 12.4958572
4.5218716 43.3624611 12.4958572
0.3514380 42.7844124 13.6017685
0.9071972 44.5369415 12.4958572
-1.1282903 43.8755684 12.4958572
-1.8672680 39.7306252 13.6017685
-3.3622813 40.8007431 12.4958572
-3.3622813 38.6605072 12.4958572
0.3514386 36.6768379 13.6017685
-1.1282893 35.5856819 12.4958572
0.9071977 34.9243088 12.4958572
3.9413805 37.8432808 13.6017675
4.5218720 36.0987892 12.4958572
5.7798719 37.8302765 12.4958572
8.5235577 39.7306252 7.1798844
8.2029915 38.6605072 5.3481255
8.2029915 40.8007431 5.3481250
3.5623798 46.5591011 7.1798844
4.4810624 45.9235382 5.3481255
2.4455757 46.5849075 5.3481255
-4.4649749 43.9508553 7.1798844
-3.5766311 44.6281738 5.3481255
-4.8346310 42.8966866 5.3481255
-4.4649734 35.5103951 7.1798844
-4.8346300 36.5645638 5.3481255
-3.5766296 34.8330765 5.3481255
3.5623813 32.9021492 7.1798844
2.4455776 32.8763428 5.3481255
4.4810643 33.5377121 5.3481250
7.1523223 43.9508553 7.1798844
6.2639785 44.6281738 9.0116434
7.5219784 42.8966866 9.0116434
-0.8750330 46.5590973 7.1798844
-1.7937156 45.9235382 9.0116434
0.2417712 46.5849075 9.0116434
-5.8362098 39.7306252 7.1798844
-5.5156436 38.6605072 9.0116434
-5.5156441 40.8007431 9.0116434
-0.8750309 32.9021492 7.1798844
0.2417731 32.8763428 9.0116434
-1.7937137 33.5377121 9.0116434
7.1523209 35.5103951 7.1798844
7.5219784 36.5645638 9.0116434
6.2639785 34.8330765 9.0116434
2.3359094 42.7844124 0.7580004
1.7801503 44.5369415 1.8639121
3.8156371 43.8755684 1.8639121
-1.2540330 41.6179695 0.7580004
-3.0925245 41.6309700 1.8639121
-1.8345240 43.3624611 1.8639121
-1.2540320 37.8432808 0.7580009
-1.8345226 36.0987892 1.8639116
-3.0925236 37.8302765 1.8639116
2.3359098 36.6768379 0.7580013
3.8156376 35.5856781 1.8639121
1.7801518 34.9243088 1.8639121
4.5546155 39.7306252 0.7580004
6.0496287 40.8007431 1.8639121
6.0496287 38.6605072 1.8639121
3 0 12 15 0.1372645 0.0997285 0.9855013
3 12 13 102 0.4013873 0.0986687 0.9105782
3 12 102 15 0.2314320 0.1681452 0.9582100
3 15 102 16 0.2178750 0.3512518 0.9105782
3 13 14 103 0.6349721 0.0981623 0.7662732
3 13 103 102 0.5065665 0.1753165 0.8441887
3 102 103 104 0.4811259 0.3495586 0.8039445
3 102 104 16 0.3232735 0.4275976 0.8441886
3 16 104 17 0.2895752 0.5735604 0.7662732
3 14 1 27 0.8200725 0.0997287 0.5635026
3 14 27 103 0.7433268 0.1775780 0.6449274
3 103 27 28 0.7102906 0.3466097 0.6126572
3 103 28 104 0.5985369 0.4348627 0.6727912
3 104 28 29 0.5491373 0.5684181 0.6126574
3 104 29 17 0.3985873 0.6520711 0.6449275
3 17 29 2 0.3482639 0.7491174 0.5635027
3 0 15 18 -0.0524304 0.1613642 0.9855013
3 15 16 105 0.0301960 0.4122323 0.9105782
3 15 105 18 -0.0883992 0.2720646 0.9582101
3 18 105 19 -0.2667332 0.3157541 0.9105782
3 16 17 106 0.1028592 0.6342281 0.7662732
3 16 106 105 -0.0101982 0.5359491 0.8441887
3 105 106 107 -0.1837740 0.5655975 0.8039444
3 105 107 19 -0.3067725 0.4395864 0.8441886
3 19 107 20 -0.4560049 0.4526424 0.7662731
3 17 2 30 0.1585686 0.8107532 0.5635026
3 17 30 106 0.0608139 0.7618204 0.6449273
3 106 30 31 -0.1101536 0.7826348 0.6126572
3 106 31 107 -0.2286210 0.7036223 0.6727913
3 107 31 32 -0.3709051 0.6979114 0.6126575
3 107 32 20 -0.4969863 0.5805799 0.6449275
3 20 32 3 -0.6048335 0.5627086 0.5635028
3 0 18 21 -0.1696683 -0.0000000 0.9855013
3 18 19 108 -0.3827251 0.1561049 0.9105783
3 18 108 21 -0.2860657 -0.0000000 0.9582101
3 21 108 22 -0.3827251 -0.1561050 0.9105781
3 19 20 109 -0.5714018 0.2938120 0.7662731
3 19 109 108 -0.5128695 0.1559182 0.8441886
3 108 109 110 -0.5947045 0.0000000 0.8039443
3 108 110 22 -0.5128694 -0.1559184 0.8441887
3 22 110 23 -0.5714017 -0.2938121 0.7662732
3 20 3 33 -0.7220717 0.4013440 0.5635028
3 20 33 109 -0.7057418 0.2932527 0.6449275
3 109 33 34 -0.7783691 0.1370852 0.6126575
3 109 34 110 -0.7398323 0.0000000 0.6727913
3 110 34 35 -0.7783691 -0.1370854 0.6126573
3 110 35 23 -0.7057417 -0.2932529 0.6449274
3 23 35 4 -0.7220718 -0.4013442 0.5635027
3 0 21 24 -0.0524304 -0.1613642 0.9855013
3 21 22 111 -0.2667332 -0.3157542 0.9105781
3 21 111 24 -0.0883991 -0.2720646 0.9582101
3 24 111 25 0.0301962 -0.4122323 0.9105782
3 22 23 112 -0.4560047 -0.4526424 0.7662731
3 22 112 111 -0.3067724 -0.4395864 0.8441886
3 111 112 113 -0.1837738 -0.5655977 0.8039444
3 111 113 25 -0.0101981 -0.5359492 0.8441886
3 25 113 26 0.1028592 -0.6342281 0.7662731
3 23 4 36 -0.6048334 -0.5627088 0.5635027
3 23 36 112 -0.4969861 -0.5805802 0.6449275
3 112 36 37 -0.3709051 -0.6979114 0.6126574
3 112 37 113 -0.2286207 -0.7036222 0.6727914
3 113 37 38 -0.1101533 -0.7826348 0.6126574
3 113 38 26 0.0608140 -0.7618203 0.6449274
3 26 38 5 0.1585688 -0.8107532 0.5635026
3 0 24 12 0.1372645 -0.0997285 0.9855013
3 24 25 114 0.2178755 -0.3512516 0.9105782
3 24 114 12 0.2314325 -0.1681455 0.9582099
3 12 114 13 0.4013873 -0.0986691 0.9105782
3 25 26 115 0.2895753 -0.5735605 0.7662733
3 25 115 114 0.3232736 -0.4275972 0.8441888
3 114 115 116 0.4811257 -0.3495583 0.8039447
3 114 116 13 0.5065661 -0.1753167 0.8441889
3 13 116 14 0.6349720 -0.0981623 0.7662731
3 26 5 39 0.3482640 -0.7491174 0.5635027
3 26 39 115 0.3985874 -0.6520711 0.6449276
3 115 39 40 0.5491372 -0.5684180 0.6126574
3 115 40 116 0.5985368 -0.4348625 0.6727913
3 116 40 41 0.7102905 -0.3466097 0.6126574
3 116 41 14 0.7433268 -0.1775779 0.6449276
3 14 41 1 0.8200725 -0.0997286 0.5635027
3 1 57 42 0.9573370 -0.0000002 0.2889735
3 57 58 117 0.9856059 -0.1561046 0.0649032
3 57 117 42 0.9849817 -0.0000002 0.1726593
3 42 117 43 0.9856060 0.1561044 0.0649030
3 58 59 118 0.9409141 -0.2938120 -0.1683894
3 58 118 117 0.9844275 -0.1559180 -0.0811916
3 117 118 119 0.9850297 -0.0000000 -0.1723847
3 117 119 43 0.9844276 0.1559178 -0.0811917
3 43 119 44 0.9409142 0.2938121 -0.1683896
3 59 10 84 0.8269324 -0.4013443 -0.3938345
3 59 84 118 0.8924581 -0.2932528 -0.3428142
3 118 84 85 0.8960748 -0.1370854 -0.4222057
3 118 85 119 0.9326260 -0.0000001 -0.3608445
3 119 85 86 0.8960748 0.1370854 -0.4222058
3 119 86 44 0.8924580 0.2932529 -0.3428142
3 44 86 6 0.8269325 0.4013441 -0.3938344
3 2 60 45 0.2958336 0.9104816 0.2889735
3 60 61 120 0.4530333 0.8891279 0.0649036
3 60 120 45 0.3043762 0.9367730 0.1726597
3 45 120 46 0.1561042 0.9856060 0.0649030
3 61 62 121 0.5701904 0.8040695 -0.1683901
3 61 121 120 0.4524917 0.8880649 -0.0811922
3 120 121 122 0.3043909 0.9368188 -0.1723852
3 120 122 46 0.1559175 0.9844276 -0.0811918
3 46 122 47 0.0113266 0.9856554 -0.1683894
3 62 6 72 0.6372373 0.6624374 -0.3938341
3 62 72 121 0.5546848 0.7581580 -0.3428139
3 121 72 73 0.4072782 0.8098562 -0.4222055
3 121 73 122 0.2881973 0.8869801 -0.3608444
3 122 73 74 0.1465265 0.8945795 -0.4222056
3 122 74 47 -0.0031153 0.9393982 -0.3428141
3 47 74 7 -0.1261650 0.9104816 -0.3938345
3 3 63 48 -0.7745020 0.5627086 0.2889733
3 63 64 123 -0.7056160 0.7056158 0.0649031
3 63 123 48 -0.7968669 0.5789576 0.1726593
3 48 123 49 -0.8891278 0.4530334 0.0649033
3 64 65 124 -0.5885171 0.7907545 -0.1683894
3 64 124 123 -0.7047724 0.7047722 -0.0811915
3 123 124 125 -0.7969059 0.5789859 -0.1723846
3 123 125 49 -0.8880649 0.4524918 -0.0811917
3 49 125 50 -0.9339140 0.3153562 -0.1683898
3 65 7 75 -0.4330981 0.8107532 -0.3938343
3 65 75 124 -0.5496441 0.7618203 -0.3428140
3 124 75 76 -0.6443631 0.6376038 -0.4222057
3 124 76 125 -0.7545103 0.5481838 -0.3608446
3 125 76 77 -0.8055165 0.4157952 -0.4222057
3 125 77 50 -0.8943834 0.2873269 -0.3428140
3 50 77 8 -0.9049067 0.1613643 -0.3938342
3 4 66 51 -0.7745018 -0.5627090 0.2889733
3 66 67 126 -0.8891278 -0.4530335 0.0649029
3 66 126 51 -0.7968665 -0.5789579 0.1726594
3 51 126 52 -0.7056158 -0.7056160 0.0649033
3 67 68 127 -0.9339138 -0.3153567 -0.1683896
3 67 127 126 -0.8880647 -0.4524918 -0.0811918
3 126 127 128 -0.7969056 -0.5789861 -0.1723849
3 126 128 52 -0.7047722 -0.7047724 -0.0811919
3 52 128 53 -0.5885168 -0.7907546 -0.1683899
3 68 8 78 -0.9049066 -0.1613644 -0.3938343
3 68 78 127 -0.8943833 -0.2873274 -0.3428140
3 127 78 79 -0.8055167 -0.4157951 -0.4222053
3 127 79 128 -0.7545103 -0.5481841 -0.3608440
3 128 79 80 -0.6443629 -0.6376043 -0.4222052
3 128 80 53 -0.5496439 -0.7618205 -0.3428136
3 53 80 9 -0.4330980 -0.8107533 -0.3938340
3 5 69 54 0.2958335 -0.9104817 0.2889734
3 69 70 129 0.1561046 -0.9856058 0.0649036
3 69 129 54 0.3043761 -0.9367730 0.1726598
3 54 129 55 0.4530334 -0.8891279 0.0649035
3 70 71 130 0.0113269 -0.9856555 -0.1683892
3 70 130 129 0.1559180 -0.9844275 -0.0811915
3 129 130 131 0.3043910 -0.9368189 -0.1723846
3 129 131 55 0.4524918 -0.8880648 -0.0811915
3 55 131 56 0.5701906 -0.8040696 -0.1683894
3 71 9 81 -0.1261650 -0.9104817 -0.3938345
3 71 81 130 -0.0031151 -0.9393981 -0.3428141
3 130 81 82 0.1465270 -0.8945793 -0.4222058
3 130 82 131 0.2881972 -0.8869799 -0.3608449
3 131 82 83 0.4072781 -0.8098559 -0.4222060
3 131 83 56 0.5546849 -0.7581576 -0.3428144
3 56 83 10 0.6372373 -0.6624371 -0.3938346
3 6 62 44 0.7745020 0.5627089 -0.2889733
3 62 61 132 0.7056159 0.7056159 -0.0649038
3 62 132 44 0.7968667 0.5789577 -0.1726599
3 44 132 43 0.8891280 0.4530331 -0.0649035
3 61 60 133 0.5885169 0.7907545 0.1683897
3 61 133 132 0.7047723 0.7047723 0.0811918
3 132 133 134 0.7969058 0.5789858 0.1723849
3 132 134 43 0.8880650 0.4524915 0.0811918
3 43 134 42 0.9339139 0.3153565 0.1683895
3 60 2 29 0.4330981 0.8107531 0.3938343
3 60 29 133 0.5496439 0.7618203 0.3428140
3 133 29 28 0.6443632 0.6376037 0.4222058
3 133 28 134 0.7545103 0.5481837 0.3608447
3 134 28 27 0.8055164 0.4157953 0.4222058
3 134 27 42 0.8943833 0.2873271 0.3428141
3 42 27 1 0.9049066 0.1613643 0.3938345
3 7 65 47 -0.2958336 0.9104816 -0.2889735
3 65 64 135 -0.4530331 0.8891280 -0.0649030
3 65 135 47 -0.3043762 0.9367732 -0.1726590
3 47 135 46 -0.1561050 0.9856058 -0.0649028
3 64 63 136 -0.5701905 0.8040695 0.1683894
3 64 136 135 -0.4524915 0.8880649 0.0811913
3 135 136 137 -0.3043912 0.9368189 0.1723842
3 135 137 46 -0.1559184 0.9844275 0.0811911
3 46 137 45 -0.0113266 0.9856555 0.1683891
3 63 3 32 -0.6372374 0.6624373 0.3938342
3 63 32 136 -0.5546849 0.7581579 0.3428139
3 136 32 31 -0.4072781 0.8098562 0.4222056
3 136 31 137 -0.2881975 0.8869799 0.3608446
3 137 31 30 -0.1465266 0.8945794 0.4222058
3 137 30 45 0.0031153 0.9393982 0.3428142
3 45 30 2 0.1261649 0.9104816 0.3938345
3 8 68 50 -0.9573372 0.0000000 -0.2889734
3 68 67 138 -0.9856058 -0.1561046 -0.0649032
3 68 138 50 -0.9849817 0.0000000 -0.1726594
3 50 138 49 -0.9856060 0.1561042 -0.0649035
3 67 66 139 -0.9409141 -0.2938120 0.1683894
3 67 139 138 -0.9844275 -0.1559180 0.0811916
3 138 139 140 -0.9850298 -0.0000002 0.1723846
3 138 140 49 -0.9844276 0.1559176 0.0811916
3 49 140 48 -0.9409142 0.2938120 0.1683897
3 66 4 35 -0.8269324 -0.4013442 0.3938346
3 66 35 139 -0.8924580 -0.2932528 0.3428142
3 139 35 34 -0.8960747 -0.1370854 0.4222057
3 139 34 140 -0.9326259 -0.0000002 0.3608446
3 140 34 33 -0.8960747 0.1370852 0.4222058
3 140 33 48 -0.8924580 0.2932527 0.3428142
3 48 33 3 -0.8269325 0.4013440 0.3938344
3 9 71 53 -0.2958338 -0.9104816 -0.2889734
3 71 70 141 -0.1561046 -0.9856059 -0.0649028
3 71 141 53 -0.3043764 -0.9367730 -0.1726594
3 53 141 52 -0.4530330 -0.8891280 -0.0649036
3 70 69 142 -0.0113264 -0.9856554 0.1683898
3 70 142 141 -0.1559179 -0.9844275 0.0811918
3 141 142 143 -0.3043907 -0.9368189 0.1723849
3 141 143 52 -0.4524914 -0.8880650 0.0811918
3 52 143 51 -0.5701901 -0.8040697 0.1683897
3 69 5 38 0.1261651 -0.9104817 0.3938342
3 69 38 142 0.0031155 -0.9393982 0.3428138
3 142 38 37 -0.1465264 -0.8945795 0.4222054
3 142 37 143 -0.2881971 -0.8869801 0.3608443
3 143 37 36 -0.4072782 -0.8098562 0.4222054
3 143 36 51 -0.5546845 -0.7581581 0.3428139
3 51 36 4 -0.6372372 -0.6624376 0.3938342
3 10 59 56 0.7745020 -0.5627084 -0.2889737
3 59 58 144 0.8891278 -0.4530337 -0.0649028
3 59 144 56 0.7968671 -0.5789576 -0.1726586
3 56 144 55 0.7056165 -0.7056153 -0.0649028
3 58 57 145 0.9339141 -0.3153563 0.1683894
3 58 145 144 0.8880647 -0.4524920 0.0811912
3 144 145 146 0.7969058 -0.5789860 0.1723841
3 144 146 55 0.7047728 -0.7047718 0.0811915
3 55 146 54 0.5885172 -0.7907544 0.1683898
3 57 1 41 0.9049067 -0.1613642 0.3938341
3 57 41 145 0.8943834 -0.2873270 0.3428139
3 145 41 40 0.8055164 -0.4157953 0.4222056
3 145 40 146 0.7545102 -0.5481838 0.3608446
3 146 40 39 0.6443632 -0.6376037 0.4222055
3 146 39 54 0.5496441 -0.7618201 0.3428139
3 54 39 5 0.4330981 -0.8107531 0.3938343
3 11 90 87 0.0524305 0.1613644 -0.9855012
3 90 91 147 -0.0301962 0.4122321 -0.9105783
3 90 147 87 0.0883991 0.2720644 -0.9582101
3 87 147 88 0.2667331 0.3157540 -0.9105783
3 91 92 148 -0.1028592 0.6342283 -0.7662731
3 91 148 147 0.0101982 0.5359493 -0.8441886
3 147 148 149 0.1837739 0.5655977 -0.8039443
3 147 149 88 0.3067725 0.4395866 -0.8441885
3 88 149 89 0.4560049 0.4526425 -0.7662730
3 92 7 74 -0.1585688 0.8107531 -0.5635028
3 92 74 148 -0.0608140 0.7618203 -0.6449276
3 148 74 73 0.1101534 0.7826347 -0.6126574
3 148 73 149 0.2286207 0.7036222 -0.6727914
3 149 73 72 0.3709050 0.6979113 -0.6126575
3 149 72 89 0.4969862 0.5805799 -0.6449277
3 89 72 6 0.6048334 0.5627086 -0.5635029
3 11 93 90 -0.1372648 0.0997287 -0.9855012
3 93 94 150 -0.4013872 0.0986685 -0.9105783
3 93 150 90 -0.2314318 0.1681450 -0.9582101
3 90 150 91 -0.2178748 0.3512516 -0.9105784
3 94 95 151 -0.6349722 0.0981624 -0.7662730
3 94 151 150 -0.5065666 0.1753166 -0.8441886
3 150 151 152 -0.4811261 0.3495587 -0.8039443
3 150 152 91 -0.3232738 0.4275978 -0.8441885
3 91 152 92 -0.2895754 0.5735605 -0.7662730
3 95 8 77 -0.8200724 0.0997286 -0.5635027
3 95 77 151 -0.7433267 0.1775778 -0.6449276
3 151 77 76 -0.7102905 0.3466095 -0.6126575
3 151 76 152 -0.5985367 0.4348625 -0.6727915
3 152 76 75 -0.5491371 0.5684180 -0.6126576
3 152 75 92 -0.3985871 0.6520709 -0.6449277
3 92 75 7 -0.3482638 0.7491174 -0.5635027
3 11 96 93 -0.1372648 -0.0997287 -0.9855011
3 96 97 153 -0.2178750 -0.3512516 -0.9105783
3 96 153 93 -0.2314320 -0.1681453 -0.9582100
3 93 153 94 -0.4013871 -0.0986689 -0.9105783
3 97 98 154 -0.2895750 -0.5735607 -0.7662730
3 97 154 153 -0.3232735 -0.4275975 -0.8441887
3 153 154 155 -0.4811258 -0.3495585 -0.8039445
3 153 155 94 -0.5065663 -0.1753168 -0.8441887
3 94 155 95 -0.6349722 -0.0981626 -0.7662730
3 98 9 80 -0.3482635 -0.7491175 -0.5635029
3 98 80 154 -0.3985868 -0.6520712 -0.6449277
3 154 80 79 -0.5491367 -0.5684184 -0.6126577
3 154 79 155 -0.5985365 -0.4348624 -0.6727918
3 155 79 78 -0.7102905 -0.3466093 -0.6126577
3 155 78 95 -0.7433265 -0.1775780 -0.6449277
3 95 78 8 -0.8200725 -0.0997287 -0.5635027
3 11 99 96 0.0524305 -0.1613644 -0.9855012
3 99 100 156 0.2667329 -0.3157542 -0.9105783
3 99 156 96 0.0883993 -0.2720649 -0.9582099
3 96 156 97 -0.0301957 -0.4122323 -0.9105783
3 100 101 157 0.4560049 -0.4526423 -0.7662731
3 100 157 156 0.3067722 -0.4395864 -0.8441888
3 156 157 158 0.1837737 -0.5655974 -0.8039446
3 156 158 97 0.0101986 -0.5359491 -0.8441887
3 97 158 98 -0.1028591 -0.6342284 -0.7662731
3 101 10 83 0.6048335 -0.5627087 -0.5635028
3 101 83 157 0.4969864 -0.5805800 -0.6449274
3 157 83 82 0.3709051 -0.6979114 -0.6126572
3 157 82 158 0.2286208 -0.7036225 -0.6727912
3 158 82 81 0.1101539 -0.7826346 -0.6126575
3 158 81 98 -0.0608139 -0.7618202 -0.6449277
3 98 81 9 -0.1585687 -0.8107530 -0.5635029
3 11 87 99 0.1696686 -0.0000000 -0.9855011
3 87 88 159 0.3827250 0.1561050 -0.9105783
3 87 159 99 0.2860654 -0.0000000 -0.9582101
3 99 159 100 0.3827249 -0.1561050 -0.9105784
3 88 89 160 0.5714018 0.2938122 -0.7662730
3 88 160 159 0.5128697 0.1559183 -0.8441885
3 159 160 161 0.5947046 0.0000000 -0.8039442
3 159 161 100 0.5128695 -0.1559183 -0.8441885
3 100 161 101 0.5714018 -0.2938121 -0.7662730
3 89 6 86 0.7220715 0.4013442 -0.5635030
3 89 86 160 0.7057416 0.2932529 -0.6449277
3 160 86 85 0.7783690 0.1370853 -0.6126576
3 160 85 161 0.7398320 0.0000000 -0.6727915
3 161 85 84 0.7783691 -0.1370853 -0.6126575
3 161 84 101 0.7057416 -0.2932529 -0.6449277
3 101 84 10 0.7220715 -0.4013443 -0.5635027
