ply
format ascii 1.0
element vertex 12
property float32 x
property float32 y
property float32 z
property float32 nx
property float32 ny
property float32 nz
element face 4
property list uint8 int32 vertex_indices
end_header
-0.2436355 40.8838730 14.0864906 -0.2194884 0.1594676 0.9624941
-1.7101136 41.9493294 13.2874584 -0.4247622 0.3086077 0.8510807
-1.8672680 39.7306252 13.6017685 -0.4496714 -0.0000000 0.8931941
-1.7101136 41.9493294 13.2874584 -0.4247622 0.3086077 0.8510807
-2.9441271 42.8458939 12.0234985 -0.5982116 0.4346260 0.6732333
-3.3622813 40.8007431 12.4958572 -0.6589354 0.1474307 0.7376099
-1.7101136 41.9493294 13.2874584 -0.4247622 0.3086077 0.8510807
-3.3622813 40.8007431 12.4958572 -0.6589354 0.1474307 0.7376099
-1.8672680 39.7306252 13.6017685 -0.4496714 -0.0000000 0.8931941
-1.8672680 39.7306252 13.6017685 -0.4496714 -0.0000000 0.8931941
-3.3622813 40.8007431 12.4958572 -0.6589354 0.1474307 0.7376099
-3.3622813 38.6605072 12.4958572 -0.6589353 -0.1474308 0.7376099
3 0 1 2
3 3 4 5
3 6 7 8
3 9 10 11
