ply
format ascii 1.0
element vertex 9
property float32 x
property float32 y
property float32 z
element face 8
property list uint8 int32 vertex_indices
property float32 nx
property float32 ny
property float32 nz
end_header
-74.7400208 -74.0415192 0.0000000
-2.5327187 -74.0415192 0.0000000
69.6745911 -74.0415192 0.0000000
-74.7400208 2.3116646 0.0000000
-2.5327187 2.3116646 0.0000000
69.6745911 2.3116646 0.0000000
-74.7400208 78.6648407 0.0000000
-2.5327187 78.6648407 0.0000000
69.6745911 78.6648407 0.0000000
3 3 0 4 0.0000000 0.0000000 1.0000000
3 1 4 0 0.0000000 0.0000000 1.0000000
3 4 1 5 0.0000000 0.0000000 1.0000000
3 2 5 1 0.0000000 0.0000000 1.0000000
3 6 3 7 0.0000000 0.0000000 1.0000000
3 4 7 3 0.0000000 0.0000000 1.0000000
3 7 4 8 0.0000000 0.0000000 1.0000000
3 5 8 4 0.0000000 0.0000000 1.0000000
