ply
format ascii 1.0
element vertex 24
property float32 x
property float32 y
property float32 z
property float32 nx
property float32 ny
property float32 nz
element face 8
property list uint8 int32 vertex_indices
end_header
-74.7400208 2.3116646 0.0000000 0.0000000 0.0000000 1.0000000
-74.7400208 -74.0415192 0.0000000 0.0000000 0.0000000 1.0000000
-2.5327187 2.3116646 0.0000000 0.0000000 0.0000000 1.0000000
-2.5327187 -74.0415192 0.0000000 0.0000000 0.0000000 1.0000000
-2.5327187 2.3116646 0.0000000 0.0000000 0.0000000 1.0000000
-74.7400208 -74.0415192 0.0000000 0.0000000 0.0000000 1.0000000
-2.5327187 2.3116646 0.0000000 0.0000000 0.0000000 1.0000000
-2.5327187 -74.0415192 0.0000000 0.0000000 0.0000000 1.0000000
69.6745911 2.3116646 0.0000000 0.0000000 0.0000000 1.0000000
69.6745911 -74.0415192 0.0000000 0.0000000 0.0000000 1.0000000
69.6745911 2.3116646 0.0000000 0.0000000 0.0000000 1.0000000
-2.5327187 -74.0415192 0.0000000 0.0000000 0.0000000 1.0000000
-74.7400208 78.6648407 0.0000000 0.0000000 0.0000000 1.0000000
-74.7400208 2.3116646 0.0000000 0.0000000 0.0000000 1.0000000
-2.5327187 78.6648407 0.0000000 0.0000000 0.0000000 1.0000000
-2.5327187 2.3116646 0.0000000 0.0000000 0.0000000 1.0000000
-2.5327187 78.6648407 0.0000000 0.0000000 0.0000000 1.0000000
-74.7400208 2.3116646 0.0000000 0.0000000 0.0000000 1.0000000
-2.5327187 78.6648407 0.0000000 0.0000000 0.0000000 1.0000000
-2.5327187 2.3116646 0.0000000 0.0000000 0.0000000 1.0000000
69.6745911 78.6648407 0.0000000 0.0000000 0.0000000 1.0000000
69.6745911 2.3116646 0.0000000 0.0000000 0.0000000 1.0000000
69.6745911 78.6648407 0.0000000 0.0000000 0.0000000 1.0000000
-2.5327187 2.3116646 0.0000000 0.0000000 0.0000000 1.0000000
3 0 1 2
3 3 4 5
3 6 7 8
3 9 10 11
3 12 13 14
3 15 16 17
3 18 19 20
3 21 22 23
